<?xml version="1.0" standalone="no"?>
<!DOCTYPE svg PUBLIC "-//W3C//DTD SVG 20010904//EN"
 "http://www.w3.org/TR/2001/REC-SVG-20010904/DTD/svg10.dtd">
<svg version="1.0" xmlns="http://www.w3.org/2000/svg"
 width="1764.000000pt" height="1764.000000pt" viewBox="0 0 1764.000000 1764.000000"
 preserveAspectRatio="xMidYMid meet">
<metadata>
Created by potrace 1.14, written by Peter Selinger 2001-2017
</metadata>
<g transform="translate(0.000000,1764.000000) scale(0.100000,-0.100000)"
fill="#000000" stroke="none">
<path d="M3019 11151 l-24 -19 -3 -1116 c-2 -1019 -1 -1118 14 -1141 9 -14 28
-28 43 -32 14 -4 118 -7 231 -8 217 -1 248 5 271 46 7 15 11 154 11 455 l1
434 31 1 c37 1 434 1 456 0 14 -1 15 -53 15 -441 l0 -440 27 -27 27 -26 232 0
232 0 24 27 c21 24 23 37 24 129 0 56 0 556 0 1112 0 973 -1 1010 -19 1035
l-19 25 -236 3 -235 2 -28 -24 -28 -24 0 -418 c0 -324 -3 -420 -13 -424 -7 -3
-119 -5 -250 -4 l-238 0 -1 397 c-1 218 -5 412 -8 432 -12 62 -23 65 -282 65
-213 0 -234 -2 -255 -19z"/>
<path d="M5010 11141 l-29 -29 0 -444 c1 -479 6 -544 55 -682 13 -39 26 -75
27 -81 12 -40 98 -169 142 -210 43 -42 117 -93 180 -125 78 -39 97 -41 179
-19 52 14 71 18 126 25 89 12 106 13 205 15 147 2 250 -10 377 -42 42 -10 85
-18 95 -16 34 7 123 45 133 58 3 3 19 13 37 22 41 22 143 121 180 177 52 77
99 185 118 270 2 8 4 15 5 15 1 0 3 11 4 25 2 14 7 52 11 85 11 85 13 894 2
927 -18 54 -36 58 -281 58 l-224 0 -26 -31 c-26 -30 -26 -31 -26 -217 -1 -103
-1 -280 -1 -393 -1 -274 -20 -364 -94 -455 -60 -72 -159 -108 -297 -106 -150
2 -249 55 -303 162 -48 94 -54 162 -55 583 0 213 -5 398 -10 411 -5 14 -18 30
-29 35 -12 7 -106 11 -246 11 l-227 0 -28 -29z"/>
<path d="M7252 11160 c-12 -5 -26 -20 -31 -32 -9 -24 -12 -2184 -4 -2230 11
-56 35 -61 276 -61 l218 -1 27 27 26 27 0 650 c0 357 4 650 7 650 4 0 15 -20
26 -45 10 -25 21 -45 26 -45 4 0 7 -5 7 -11 0 -9 445 -915 564 -1149 48 -95
68 -103 262 -104 85 -1 154 3 154 8 0 5 6 4 13 -1 6 -5 36 -8 66 -7 43 2 60 8
80 28 l25 26 0 1116 0 1116 -27 24 c-28 24 -31 24 -242 24 -224 0 -255 -5
-272 -44 -6 -12 -9 -285 -9 -669 1 -356 -1 -647 -4 -647 -7 0 -250 495 -250
508 0 6 -3 12 -7 14 -9 4 -183 354 -183 368 0 6 -4 10 -10 10 -6 0 -9 3 -8 8
3 9 -192 402 -207 418 -29 31 -58 34 -277 33 -123 0 -233 -4 -246 -9z"/>
<path d="M9295 11144 c-24 -26 -24 -28 -24 -223 1 -191 1 -199 24 -226 l23
-29 243 -1 244 0 1 -880 c0 -686 3 -885 13 -903 22 -42 54 -47 282 -46 236 1
261 6 272 61 3 15 5 412 5 883 1 470 1 862 1 870 1 13 33 15 229 14 125 0 239
4 253 8 47 16 52 41 52 254 l1 197 -28 23 -27 24 -770 0 -770 0 -24 -26z"/>
<path d="M11216 11145 l-24 -24 0 -1107 c0 -610 3 -1117 8 -1130 19 -48 15
-47 703 -48 356 -1 647 3 647 7 0 5 5 5 10 2 17 -11 45 4 61 32 13 23 16 61
15 203 -2 185 -8 213 -48 226 -13 4 -205 8 -428 8 l-405 1 -2 238 c-1 130 1
238 5 238 4 1 174 2 377 3 204 1 380 6 392 10 36 12 45 64 41 243 -3 152 -4
164 -25 185 -22 22 -24 22 -400 23 -208 1 -381 3 -385 4 -13 2 -7 431 6 431 6
1 182 1 391 0 237 0 392 4 411 10 48 16 53 43 51 247 -2 178 -2 182 -26 202
-24 21 -30 21 -687 21 l-663 0 -25 -25z"/>
<path d="M12953 11158 c-12 -6 -27 -25 -32 -42 -13 -43 -11 -2191 2 -2229 5
-16 21 -33 36 -39 15 -6 115 -11 236 -12 235 -2 257 3 273 56 6 20 10 159 9
343 -1 171 -1 318 2 328 3 15 12 18 60 16 57 -3 64 -8 96 -61 36 -59 431 -630
446 -643 37 -34 81 -40 294 -39 116 0 219 4 231 8 25 8 45 46 39 75 -3 16
-204 312 -225 331 -3 3 -9 12 -15 21 -15 25 -100 146 -187 267 -43 59 -78 112
-78 118 0 10 45 25 66 23 4 0 10 3 13 8 3 4 36 23 72 41 151 75 256 198 314
367 17 50 22 78 31 170 29 290 -49 550 -208 690 -72 63 -196 135 -234 135 -7
0 -15 4 -18 9 -3 5 -23 12 -43 17 -21 4 -40 8 -43 9 -3 0 -27 6 -55 13 -93 23
-140 25 -600 28 -322 2 -467 0 -482 -8z m902 -488 c76 -21 113 -41 145 -77 54
-61 62 -85 66 -213 5 -148 -32 -231 -126 -283 -77 -43 -158 -57 -335 -59 -125
-2 -130 1 -130 60 1 26 5 53 9 60 4 7 4 12 -1 12 -6 0 -9 458 -4 513 2 16 311
4 376 -13z"/>
<path d="M5837 9314 c-1 -1 -37 -4 -79 -8 -43 -4 -83 -9 -90 -11 -7 -2 -24 -6
-38 -9 -49 -8 -114 -28 -166 -51 -30 -13 -54 -21 -54 -18 0 3 -6 1 -12 -5 -7
-5 -31 -20 -53 -32 -61 -33 -137 -95 -191 -153 -59 -63 -94 -105 -94 -112 0
-3 -13 -26 -29 -52 -54 -89 -123 -284 -137 -388 -2 -16 -6 -41 -9 -55 -18 -91
-25 -376 -11 -510 4 -41 7 -82 7 -90 0 -8 5 -37 10 -65 6 -27 13 -61 15 -75
11 -60 66 -220 94 -274 100 -192 238 -325 425 -411 33 -15 67 -29 75 -31 224
-57 238 -59 430 -57 116 1 181 6 260 23 105 21 232 67 282 102 14 10 30 18 35
18 20 0 156 120 210 185 83 100 173 285 197 405 2 14 8 41 11 60 4 19 9 42 12
50 6 16 7 23 18 165 9 104 9 336 0 410 -12 100 -27 191 -42 245 -8 30 -16 62
-18 70 -16 66 -86 214 -137 289 -72 104 -216 226 -331 280 -61 27 -148 60
-179 67 -141 29 -184 35 -321 38 -48 1 -89 1 -90 0z m150 -498 c170 -18 303
-148 358 -352 17 -59 20 -76 35 -189 10 -80 4 -346 -10 -415 -6 -30 -13 -69
-16 -86 -14 -91 -75 -207 -140 -270 -119 -117 -345 -144 -509 -63 -114 57
-210 209 -239 380 -3 19 -8 48 -12 64 -3 17 -7 76 -8 131 -2 56 -7 107 -10
113 -4 6 -4 11 1 11 4 0 8 24 9 53 5 302 116 531 291 597 52 20 173 40 198 33
6 -1 29 -4 52 -7z"/>
<path d="M8096 8403 c-2 -2 -36 -5 -77 -7 -78 -4 -238 -38 -298 -63 -20 -9
-37 -15 -39 -14 -1 1 -26 -11 -55 -25 -126 -64 -243 -165 -324 -279 -95 -135
-168 -349 -188 -550 -3 -22 -7 -65 -10 -95 -8 -81 -4 -405 5 -405 1 0 3 -18 5
-40 7 -78 29 -186 57 -275 63 -197 173 -357 323 -471 79 -60 239 -133 333
-154 12 -3 30 -7 40 -9 11 -2 41 -7 68 -10 27 -4 65 -9 84 -11 86 -12 269 -4
366 15 28 6 63 13 79 16 83 15 225 77 315 137 60 40 180 163 230 237 22 33 38
60 35 60 -4 0 2 12 13 28 25 35 91 224 95 268 1 19 4 34 8 34 3 0 5 10 6 23 0
12 3 36 7 52 13 58 20 171 20 330 0 164 -9 289 -29 385 -3 14 -8 39 -11 55
-18 99 -95 284 -157 375 -152 222 -429 370 -722 386 -38 2 -94 5 -123 7 -29 2
-54 2 -56 0z m172 -507 c80 -22 132 -52 187 -111 58 -62 113 -165 130 -245 25
-115 30 -178 29 -360 0 -173 -4 -220 -22 -300 -64 -279 -216 -406 -472 -395
-295 13 -447 256 -442 710 1 99 8 218 16 251 2 12 7 38 10 59 4 20 9 41 12 46
3 5 7 19 9 31 9 47 75 165 117 208 51 53 105 84 179 104 70 19 180 20 247 2z"/>
<path d="M12218 8394 c-2 -1 -28 -5 -58 -8 -180 -17 -379 -88 -457 -163 -7 -6
-23 -20 -36 -30 -34 -26 -94 -108 -117 -159 -38 -83 -53 -164 -54 -289 0 -133
5 -172 38 -263 57 -158 151 -258 346 -365 54 -30 279 -124 315 -132 5 -1 24
-7 40 -14 17 -7 50 -20 75 -28 166 -57 280 -148 293 -235 6 -35 -11 -96 -35
-129 -24 -31 -122 -85 -173 -94 -169 -29 -359 -22 -520 18 -97 25 -139 38
-152 49 -7 6 -13 7 -13 3 0 -4 -7 -2 -15 5 -8 7 -33 13 -56 13 -32 1 -45 -4
-58 -22 -24 -32 -121 -301 -121 -335 0 -39 45 -78 127 -111 38 -15 73 -28 80
-29 7 -1 16 -5 19 -9 4 -4 17 -7 29 -7 12 0 25 -3 29 -7 3 -4 14 -8 22 -9 9
-2 57 -10 108 -18 159 -27 177 -29 363 -31 203 -3 335 14 473 62 81 28 209 92
239 120 10 10 35 34 56 53 67 61 133 180 150 268 2 9 4 17 5 17 4 0 10 68 13
140 5 110 -17 225 -57 311 -33 69 -44 86 -115 166 -44 50 -178 139 -277 184
-44 19 -88 39 -99 44 -29 13 -255 100 -260 100 -13 0 -166 77 -203 102 -88 60
-120 154 -81 235 43 88 156 124 378 118 145 -3 223 -14 336 -47 107 -31 138
-32 163 -5 11 12 38 67 60 122 21 55 43 109 47 120 22 55 24 80 8 112 -29 61
-260 143 -473 169 -48 6 -378 13 -382 8z"/>
<path d="M3050 8357 c-64 -16 -61 58 -58 -1170 l3 -1116 22 -22 c21 -22 29
-22 240 -23 120 0 230 3 244 7 52 14 54 25 54 471 0 315 3 412 12 416 7 3 115
4 240 3 125 -2 233 -3 238 -3 102 0 304 0 315 0 8 -1 37 1 64 3 56 5 85 31 87
76 2 64 0 317 -3 331 -5 19 -26 56 -30 52 -2 -2 -10 -1 -18 2 -8 3 -215 7
-460 8 l-445 3 0 245 0 245 474 0 473 0 24 28 c23 27 24 32 24 213 l0 185 -26
24 c-15 14 -36 25 -48 26 -115 6 -1403 2 -1426 -4z"/>
<path d="M9511 8348 c-14 -10 -29 -28 -33 -40 -10 -38 -9 -2204 2 -2232 18
-48 31 -50 405 -49 318 0 474 5 546 18 14 3 39 6 55 8 17 2 35 7 42 11 7 4 12
5 12 2 0 -3 24 2 53 11 310 91 504 255 602 508 33 86 38 99 40 110 35 157 43
201 52 295 9 94 9 355 0 435 -9 75 -14 109 -32 203 -13 61 -69 211 -102 272
-63 115 -139 199 -248 273 -33 23 -62 42 -65 43 -3 0 -34 14 -70 31 -61 29
-112 48 -156 58 -10 2 -39 9 -64 16 -66 16 -80 18 -135 24 -27 3 -72 8 -100
11 -27 3 -214 6 -414 7 -329 2 -366 0 -390 -15z m724 -488 c0 -1 20 -4 45 -6
25 -3 56 -9 70 -14 14 -6 34 -11 45 -13 37 -5 129 -56 171 -94 80 -74 138
-217 150 -373 9 -130 10 -204 2 -222 -5 -10 -4 -19 2 -23 6 -4 8 -10 6 -14 -3
-4 -8 -30 -11 -57 -19 -155 -53 -264 -103 -334 -37 -52 -182 -159 -182 -134 0
4 -6 2 -13 -4 -7 -6 -25 -13 -40 -16 -15 -2 -31 -7 -36 -11 -21 -12 -274 -26
-289 -16 -7 5 -10 1311 -4 1331 2 4 187 4 187 0z"/>
<path d="M13387 8312 c-14 -3 -17 -12 -15 -40 3 -31 7 -37 28 -39 14 0 30 -1
37 -2 9 -1 13 -34 15 -113 l3 -112 45 0 45 0 0 112 0 112 36 0 c24 0 39 5 43
16 8 22 8 64 -1 65 -24 3 -221 4 -236 1z"/>
<path d="M13675 8300 c-10 -33 -3 -290 8 -291 7 -1 28 -2 47 -3 l35 -1 0 83
c-1 45 2 82 5 82 3 0 14 -16 24 -35 10 -19 27 -42 37 -51 17 -15 20 -13 54 35
20 28 38 51 40 51 2 0 3 -34 2 -76 -1 -42 2 -79 8 -83 8 -6 45 -7 77 -2 11 2
8 301 -3 302 -12 1 -56 1 -71 0 -7 -1 -30 -28 -52 -61 -35 -55 -56 -68 -56
-35 0 7 -4 15 -8 17 -4 2 -18 20 -31 41 -12 20 -28 37 -34 38 -61 6 -77 3 -82
-11z"/>
</g>
</svg>
